<?xml version="1.0" encoding="UTF-8"?>
<!DOCTYPE svg PUBLIC "-//W3C//DTD SVG 1.1//EN" "http://www.w3.org/Graphics/SVG/1.1/DTD/svg11.dtd">
<!-- Creator: CorelDRAW 2020 (64-Bit) -->
<svg xmlns="http://www.w3.org/2000/svg" xml:space="preserve" width="3.56864in" height="0.539433in" version="1.1" style="shape-rendering:geometricPrecision; text-rendering:geometricPrecision; image-rendering:optimizeQuality; fill-rule:evenodd; clip-rule:evenodd"
viewBox="0 0 1957.51 295.9"
 xmlns:xlink="http://www.w3.org/1999/xlink"
 xmlns:xodm="http://www.corel.com/coreldraw/odm/2003">
 <defs>
  <style type="text/css">
   <![CDATA[
    .fil0 {fill:#FEFEFE;fill-rule:nonzero}
   ]]>
  </style>
 </defs>
 <g id="Capa_x0020_1">
  <metadata id="CorelCorpID_0Corel-Layer"/>
  <path class="fil0" d="M1.43 246.76l56.39 -99.51c8.04,-13.89 14.02,-26.48 17.94,-37.76 3.86,-11.34 5.79,-21.31 5.79,-29.97l0 -1.99c0,-8.04 -1.56,-14.08 -4.61,-18.19 -3.11,-4.05 -7.85,-6.11 -14.14,-6.11 -7.48,0 -12.96,2.74 -16.64,8.22 -3.68,5.48 -5.48,13.71 -5.48,24.68l0 5.11 -40.69 0 0 -5.11c0,-15.95 2.24,-29.29 6.73,-39.94 4.49,-10.59 11.28,-18.63 20.38,-23.99 9.03,-5.36 20.37,-8.04 34.02,-8.04 13.65,0 24.99,2.37 34.08,7.17 9.04,4.73 15.83,11.78 20.44,21.25 4.55,9.41 6.85,21.19 6.85,35.33l0 1.81c0,10.22 -2.18,21.87 -6.42,34.89 -4.24,13.02 -10.65,27.42 -19.19,43.24l-46.17 85.8 71.4 0 0 38.69 -120.69 0 0 -35.58z"/>
  <path id="1" class="fil0" d="M213.53 285.07c-19.13,0 -33.9,-5.42 -44.43,-16.32 -10.53,-10.9 -15.83,-26.29 -15.83,-46.11l0 -146.24c0,-19.81 5.3,-35.14 15.83,-45.98 10.53,-10.84 25.3,-16.26 44.43,-16.26 19.25,0 34.08,5.42 44.61,16.26 10.53,10.84 15.83,26.17 15.83,45.98l0 146.24c0,19.81 -5.3,35.2 -15.83,46.11 -10.53,10.9 -25.36,16.32 -44.61,16.32zm0 -38.69c6.48,0 11.46,-2.06 15.08,-6.23 3.55,-4.11 5.36,-9.97 5.36,-17.51l0 -146.24c0,-7.42 -1.81,-13.21 -5.36,-17.32 -3.62,-4.11 -8.6,-6.23 -15.08,-6.23 -6.3,0 -11.28,2.12 -14.89,6.23 -3.55,4.11 -5.36,9.91 -5.36,17.32l0 146.24c0,7.54 1.81,13.4 5.36,17.51 3.61,4.17 8.6,6.23 14.89,6.23z"/>
  <path id="2" class="fil0" d="M306.24 246.76l56.39 -99.51c8.04,-13.89 14.02,-26.48 17.94,-37.76 3.86,-11.34 5.79,-21.31 5.79,-29.97l0 -1.99c0,-8.04 -1.56,-14.08 -4.61,-18.19 -3.11,-4.05 -7.85,-6.11 -14.14,-6.11 -7.48,0 -12.96,2.74 -16.64,8.22 -3.68,5.48 -5.48,13.71 -5.48,24.68l0 5.11 -40.69 0 0 -5.11c0,-15.95 2.24,-29.29 6.73,-39.94 4.49,-10.59 11.28,-18.63 20.38,-23.99 9.03,-5.36 20.37,-8.04 34.02,-8.04 13.65,0 24.99,2.37 34.08,7.17 9.04,4.73 15.83,11.78 20.44,21.25 4.55,9.41 6.85,21.19 6.85,35.33l0 1.81c0,10.22 -2.18,21.87 -6.42,34.89 -4.24,13.02 -10.65,27.42 -19.19,43.24l-46.17 85.8 71.4 0 0 38.69 -120.69 0 0 -35.58z"/>
  <path id="3" class="fil0" d="M512.48 285.07c-13.15,0 -24.3,-2.24 -33.58,-6.73 -9.22,-4.55 -16.32,-11.09 -21.25,-19.63 -4.92,-8.6 -7.42,-18.94 -7.42,-30.97l0 -19 40.38 0 0 17.38c0,4.11 0.81,7.66 2.55,10.59 1.68,2.87 4.17,5.17 7.48,6.73 3.3,1.56 7.23,2.37 11.84,2.37 6.61,0 11.72,-1.87 15.33,-5.67 3.68,-3.74 5.48,-9.03 5.48,-15.89l0 -37.2c0,-7.42 -1.68,-13.21 -5.11,-17.38 -3.36,-4.11 -8.16,-6.17 -14.21,-6.17l-16.45 0 0 -38.69 16.45 0c4.74,0 8.41,-1.74 11.03,-5.11 2.62,-3.43 3.92,-8.23 3.92,-14.46l0 -34.64c0,-5.36 -1.43,-9.59 -4.36,-12.65 -2.93,-2.99 -7.04,-4.55 -12.27,-4.55 -3.62,0 -6.79,0.69 -9.47,2.12 -2.68,1.37 -4.73,3.36 -6.11,5.92 -1.43,2.55 -2.12,5.73 -2.12,9.47l0 19.56 -39.94 0 0 -19.88c0,-11.96 2.3,-22.12 6.92,-30.59 4.61,-8.47 11.34,-14.89 20.19,-19.25 8.79,-4.42 19.44,-6.6 31.84,-6.6 17.63,0 31.28,4.92 40.87,14.7 9.59,9.78 14.45,23.74 14.45,41.74l0 36.33c0,6.54 -2.12,13.08 -6.29,19.5 -4.24,6.48 -10.16,12.21 -17.82,17.32 8.97,3.3 16.01,8.66 21,16.01 4.98,7.35 7.48,16.01 7.48,25.98l0 39.07c0,12.65 -2.37,23.55 -7.1,32.59 -4.74,9.1 -11.71,15.95 -20.81,20.62 -9.16,4.67 -20.13,7.04 -32.9,7.04z"/>
  <polygon class="fil0" points="638.81,131.16 619.25,131.16 619.25,1.34 638.81,1.34 "/>
  <polygon id="1" class="fil0" points="673.28,131.16 653.71,131.16 653.71,1.34 673.28,1.34 "/>
  <polygon id="2" class="fil0" points="707.75,131.16 688.18,131.16 688.18,1.34 707.75,1.34 "/>
  <path id="3" class="fil0" d="M791.03 132.5c-6.43,0 -11.91,-1.31 -16.52,-3.93 -4.57,-2.62 -8.07,-6.4 -10.48,-11.34 -2.41,-4.94 -3.63,-10.88 -3.63,-17.86l0 -66.25c0,-6.95 1.22,-12.92 3.63,-17.89 2.41,-4.97 5.91,-8.75 10.48,-11.34 4.6,-2.59 10.09,-3.9 16.52,-3.9 6.49,0 12.04,1.31 16.61,3.9 4.6,2.59 8.07,6.37 10.48,11.34 2.41,4.97 3.63,10.94 3.63,17.89l0 8.04 -19.81 0 0 -8.04c0,-2.87 -0.43,-5.3 -1.25,-7.34 -0.86,-2.07 -2.07,-3.63 -3.72,-4.69 -1.65,-1.07 -3.63,-1.62 -5.94,-1.62 -2.25,0 -4.17,0.55 -5.79,1.62 -1.62,1.07 -2.83,2.62 -3.72,4.69 -0.85,2.04 -1.28,4.48 -1.28,7.34l0 66.25c0,2.87 0.43,5.3 1.28,7.31 0.88,2.04 2.1,3.57 3.72,4.66 1.62,1.07 3.54,1.59 5.79,1.59 2.32,0 4.3,-0.52 5.94,-1.59 1.65,-1.1 2.86,-2.62 3.72,-4.66 0.82,-2.01 1.25,-4.48 1.25,-7.41l0 -7.95 19.81 0 0 7.95c0,6.98 -1.22,12.92 -3.63,17.92 -2.41,4.97 -5.88,8.75 -10.48,11.37 -4.57,2.62 -10.12,3.93 -16.61,3.93z"/>
  <path id="4" class="fil0" d="M863.1 132.5c-5.73,0 -10.61,-1.04 -14.69,-3.08 -4.08,-2.07 -7.19,-5.03 -9.33,-8.93 -2.16,-3.9 -3.23,-8.59 -3.23,-14.08l0 -43.91c0,-5.42 1.07,-10.06 3.23,-13.87 2.13,-3.84 5.24,-6.76 9.33,-8.78 4.08,-1.98 8.96,-2.98 14.69,-2.98 5.7,0 10.6,1 14.69,2.98 4.05,2.01 7.16,4.94 9.26,8.78 2.13,3.81 3.17,8.44 3.17,13.87l0 44.19c0,5.42 -1.03,10.05 -3.17,13.93 -2.1,3.87 -5.21,6.82 -9.26,8.84 -4.08,2.04 -8.99,3.05 -14.69,3.05zm-0.09 -18.22c2.5,0 4.42,-0.76 5.76,-2.32 1.34,-1.55 2.01,-3.75 2.01,-6.61l0 -41.69c0,-2.74 -0.67,-4.88 -2.01,-6.37 -1.34,-1.52 -3.26,-2.28 -5.76,-2.28 -2.38,0 -4.27,0.76 -5.67,2.32 -1.4,1.55 -2.1,3.66 -2.1,6.34l0 41.69c0,2.86 0.67,5.06 2.04,6.61 1.37,1.55 3.29,2.32 5.73,2.32z"/>
  <path id="5" class="fil0" d="M907.01 38.49l19.63 0 0 92.67 -19.63 0 0 -92.67zm38.03 27.76c0,-3.81 -0.79,-6.68 -2.35,-8.63 -1.52,-1.92 -3.84,-2.89 -6.95,-2.89 -3.05,0 -5.3,0.97 -6.83,2.95 -1.52,1.95 -2.28,4.91 -2.28,8.84l-1.86 -12.16c1.95,-5.76 4.72,-10.12 8.35,-13.07 3.6,-2.93 7.68,-4.42 12.25,-4.42 6.15,0 10.88,2.1 14.2,6.31 3.35,4.17 5,10.15 5,17.89l0 70.09 -19.53 0 0 -64.91z"/>
  <path id="6" class="fil0" d="M1009.4 168.82c-8.74,0 -15.54,-2.32 -20.36,-6.95 -4.81,-4.66 -7.22,-11.15 -7.22,-19.56l0 -3.29 19.44 -0.09 0 3.29c0,2.81 0.79,4.97 2.35,6.52 1.52,1.55 3.69,2.32 6.43,2.32 2.71,0 4.84,-0.76 6.34,-2.25 1.46,-1.52 2.22,-3.66 2.22,-6.4l0 -103.92 19.53 0 0 103.92c0,5.61 -1.13,10.36 -3.38,14.29 -2.25,3.93 -5.55,6.92 -9.81,9.02 -4.3,2.07 -9.48,3.11 -15.54,3.11zm-8.65 -36.14c-4.11,0 -7.62,-1.04 -10.48,-3.08 -2.9,-2.07 -5.09,-5.06 -6.61,-9.02 -1.52,-3.96 -2.29,-8.74 -2.29,-14.32l0 -42.51c0,-5.64 0.76,-10.48 2.29,-14.5 1.52,-4.02 3.72,-7.07 6.61,-9.2 2.86,-2.1 6.37,-3.17 10.48,-3.17 4.11,0 7.89,1.46 11.34,4.39 3.44,2.92 6.25,6.98 8.38,12.22l-1.86 12.16c0,-2.35 -0.33,-4.33 -1.04,-6 -0.67,-1.65 -1.71,-2.92 -3.05,-3.78 -1.31,-0.89 -2.96,-1.31 -4.85,-1.31 -2.86,0 -5.09,1.01 -6.7,2.96 -1.62,1.95 -2.41,4.69 -2.41,8.23l0 38.82c0,3.32 0.79,5.91 2.41,7.71 1.62,1.83 3.84,2.74 6.7,2.74 1.89,0 3.54,-0.43 4.85,-1.25 1.34,-0.85 2.38,-2.07 3.05,-3.72 0.7,-1.65 1.04,-3.6 1.04,-5.85l1.25 12.4c-1.61,5.06 -4.08,9.02 -7.4,11.85 -3.35,2.8 -7.25,4.24 -11.7,4.24z"/>
  <path id="7" class="fil0" d="M1056.82 38.49l19.53 0 0 92.67 -19.53 0 0 -92.67zm43.36 18.56c-0.58,0 -1.25,0 -1.95,0 -0.7,0 -1.55,0 -2.5,0 -6.06,0 -10.82,1.65 -14.2,4.88 -3.38,3.23 -5.12,7.68 -5.18,13.35l-1.86 -20.63c2.83,-5.58 6.52,-9.93 10.97,-13.07 4.48,-3.11 9.39,-4.69 14.72,-4.69 0,0 0,0 0,0 0,0 0,0 0,0l0 20.17z"/>
  <path id="8" class="fil0" d="M1139.01 132.5c-6.06,0 -11.24,-1.16 -15.51,-3.47 -4.3,-2.32 -7.56,-5.7 -9.84,-10.15 -2.26,-4.42 -3.38,-9.78 -3.38,-16.03l0 -34.62c0,-6.61 1.1,-12.28 3.29,-16.97 2.22,-4.69 5.42,-8.29 9.6,-10.73 4.21,-2.44 9.26,-3.66 15.15,-3.66 5.94,0 11.06,1.16 15.3,3.5 4.27,2.32 7.53,5.7 9.75,10.12 2.22,4.45 3.35,9.81 3.35,16.12l0 25.35 -41.63 0 0 -15.08 22.76 0 0 -10.54c0,-3.81 -0.82,-6.77 -2.5,-8.84 -1.65,-2.07 -3.99,-3.14 -7.04,-3.14 -2.92,0 -5.18,1.13 -6.79,3.35 -1.59,2.26 -2.41,5.39 -2.41,9.42l0 36.35c0,3.5 0.88,6.25 2.59,8.2 1.74,1.98 4.18,2.96 7.31,2.96 2.93,0 5.18,-0.76 6.77,-2.28 1.55,-1.52 2.35,-3.63 2.35,-6.37l0 -1.98 18.83 0.09 0 1.62c0,8.5 -2.44,15.11 -7.31,19.78 -4.88,4.66 -11.76,7.01 -20.63,7.01z"/>
  <path id="9" class="fil0" d="M1207.7 132.5c-5.73,0 -10.73,-1.16 -14.99,-3.47 -4.3,-2.32 -7.62,-5.61 -9.97,-9.84 -2.35,-4.2 -3.53,-9.11 -3.53,-14.72l0 -1.16 18.68 -0.09 0 1.07c0,3.29 0.85,5.88 2.62,7.83 1.77,1.92 4.14,2.89 7.19,2.89 3.02,0 5.42,-0.91 7.19,-2.74 1.74,-1.8 2.62,-4.27 2.62,-7.34 0,-2.22 -0.58,-4.05 -1.71,-5.55 -1.13,-1.49 -2.56,-2.68 -4.27,-3.57 -1.74,-0.88 -4.17,-1.95 -7.31,-3.14 -0.37,-0.12 -0.73,-0.24 -1.13,-0.4 -0.4,-0.15 -0.79,-0.3 -1.22,-0.49 -0.12,-0.06 -0.24,-0.12 -0.43,-0.18 -0.18,-0.06 -0.34,-0.12 -0.46,-0.18 -4.05,-1.59 -7.53,-3.41 -10.45,-5.39 -2.9,-1.98 -5.33,-4.76 -7.25,-8.29 -1.95,-3.57 -2.92,-8.04 -2.92,-13.44 0,-5.49 1.1,-10.3 3.26,-14.47 2.19,-4.17 5.27,-7.37 9.29,-9.6 4.02,-2.22 8.72,-3.35 14.05,-3.35 5.42,0 10.15,1.06 14.17,3.23 4.02,2.13 7.1,5.21 9.26,9.23 2.19,4.02 3.26,8.72 3.26,14.05l0 1.1 -18.65 0.06 0 -1.25c0,-2.77 -0.7,-5 -2.13,-6.58 -1.43,-1.62 -3.41,-2.41 -5.91,-2.41 -2.44,0 -4.36,0.85 -5.76,2.62 -1.4,1.77 -2.07,4.14 -2.07,7.19 0,2.38 0.58,4.33 1.74,5.88 1.16,1.55 2.65,2.77 4.45,3.72 1.83,0.91 4.2,1.89 7.19,2.89 0.12,0.06 0.24,0.09 0.4,0.12 0.15,0.03 0.27,0.09 0.4,0.15 0.06,0.06 0.15,0.09 0.27,0.09 0.12,0 0.24,0.03 0.36,0.09 4.63,1.52 8.47,3.2 11.46,4.94 3.02,1.77 5.58,4.48 7.68,8.14 2.13,3.66 3.17,8.59 3.17,14.78 0,5.58 -1.16,10.45 -3.5,14.6 -2.38,4.11 -5.67,7.31 -9.97,9.6 -4.3,2.25 -9.33,3.38 -15.08,3.38z"/>
  <path id="10" class="fil0" d="M1275.02 132.5c-5.73,0 -10.61,-1.04 -14.69,-3.08 -4.08,-2.07 -7.19,-5.03 -9.33,-8.93 -2.16,-3.9 -3.23,-8.59 -3.23,-14.08l0 -43.91c0,-5.42 1.07,-10.06 3.23,-13.87 2.13,-3.84 5.24,-6.76 9.33,-8.78 4.08,-1.98 8.96,-2.98 14.69,-2.98 5.7,0 10.6,1 14.69,2.98 4.05,2.01 7.16,4.94 9.26,8.78 2.13,3.81 3.17,8.44 3.17,13.87l0 44.19c0,5.42 -1.03,10.05 -3.17,13.93 -2.1,3.87 -5.21,6.82 -9.26,8.84 -4.08,2.04 -8.99,3.05 -14.69,3.05zm-0.09 -18.22c2.5,0 4.42,-0.76 5.76,-2.32 1.34,-1.55 2.01,-3.75 2.01,-6.61l0 -41.69c0,-2.74 -0.67,-4.88 -2.01,-6.37 -1.34,-1.52 -3.26,-2.28 -5.76,-2.28 -2.38,0 -4.27,0.76 -5.67,2.32 -1.4,1.55 -2.1,3.66 -2.1,6.34l0 41.69c0,2.86 0.67,5.06 2.04,6.61 1.37,1.55 3.29,2.32 5.73,2.32z"/>
  <path id="11" class="fil0" d="M1391.06 1.34l19.53 0 0 129.82 -19.53 0 0 -129.82zm-17.95 131.34c-4.05,0 -7.53,-1.04 -10.39,-3.08 -2.9,-2.07 -5.09,-5.06 -6.61,-9.02 -1.52,-3.96 -2.29,-8.74 -2.29,-14.32l0 -42.51c0,-5.64 0.76,-10.48 2.29,-14.5 1.52,-4.02 3.72,-7.07 6.61,-9.2 2.86,-2.1 6.34,-3.17 10.39,-3.17 4.17,0 7.98,1.46 11.43,4.39 3.44,2.92 6.25,6.98 8.38,12.22l-1.86 12.4c0,-2.32 -0.36,-4.3 -1.07,-5.97 -0.73,-1.68 -1.74,-2.92 -3.05,-3.78 -1.31,-0.89 -2.93,-1.31 -4.82,-1.31 -2.86,0 -5.09,0.97 -6.64,2.96 -1.59,1.95 -2.38,4.69 -2.38,8.2l0 38.3c0,3.35 0.79,5.91 2.38,7.74 1.55,1.8 3.78,2.71 6.64,2.71 1.89,0 3.5,-0.43 4.82,-1.25 1.31,-0.82 2.32,-2.07 3.05,-3.72 0.7,-1.62 1.07,-3.57 1.07,-5.85l1.25 12.68c-1.61,5.06 -4.08,9.02 -7.4,11.85 -3.35,2.8 -7.28,4.24 -11.79,4.24z"/>
  <path id="12" class="fil0" d="M1456.12 132.5c-6.06,0 -11.24,-1.16 -15.51,-3.47 -4.3,-2.32 -7.56,-5.7 -9.84,-10.15 -2.26,-4.42 -3.38,-9.78 -3.38,-16.03l0 -34.62c0,-6.61 1.1,-12.28 3.29,-16.97 2.22,-4.69 5.42,-8.29 9.6,-10.73 4.21,-2.44 9.26,-3.66 15.15,-3.66 5.94,0 11.06,1.16 15.3,3.5 4.27,2.32 7.53,5.7 9.75,10.12 2.22,4.45 3.35,9.81 3.35,16.12l0 25.35 -41.63 0 0 -15.08 22.76 0 0 -10.54c0,-3.81 -0.82,-6.77 -2.5,-8.84 -1.65,-2.07 -3.99,-3.14 -7.04,-3.14 -2.92,0 -5.18,1.13 -6.79,3.35 -1.59,2.26 -2.41,5.39 -2.41,9.42l0 36.35c0,3.5 0.88,6.25 2.59,8.2 1.74,1.98 4.18,2.96 7.31,2.96 2.93,0 5.18,-0.76 6.77,-2.28 1.55,-1.52 2.35,-3.63 2.35,-6.37l0 -1.98 18.83 0.09 0 1.62c0,8.5 -2.44,15.11 -7.31,19.78 -4.88,4.66 -11.76,7.01 -20.63,7.01z"/>
  <path class="fil0" d="M636.37 225.35l23.74 0c2.07,0 3.87,-0.46 5.36,-1.43 1.46,-0.94 2.62,-2.32 3.41,-4.14 0.82,-1.8 1.22,-3.96 1.22,-6.46l0 -17.58c0,-2.62 -0.4,-4.88 -1.16,-6.73 -0.76,-1.89 -1.92,-3.32 -3.44,-4.3 -1.52,-0.98 -3.32,-1.46 -5.39,-1.46l-23.74 0 0 -18.68 23.92 0c6.25,0 11.61,1.16 16.06,3.44 4.48,2.28 7.86,5.64 10.18,10.06 2.32,4.39 3.47,9.69 3.47,15.88l0 21.24c0,6.09 -1.16,11.28 -3.5,15.6 -2.38,4.3 -5.76,7.59 -10.24,9.84 -4.45,2.28 -9.78,3.41 -15.97,3.41l-23.92 0 0 -18.68zm-9.84 -60.8l19.56 0 0 129.82 -19.56 0 0 -129.82z"/>
  <path id="1" class="fil0" d="M702.89 201.7l19.53 0 0 92.67 -19.53 0 0 -92.67zm43.36 18.56c-0.58,0 -1.25,0 -1.95,0 -0.7,0 -1.55,0 -2.5,0 -6.06,0 -10.82,1.65 -14.2,4.87 -3.38,3.23 -5.12,7.68 -5.18,13.35l-1.86 -20.63c2.83,-5.58 6.52,-9.93 10.97,-13.07 4.48,-3.11 9.39,-4.69 14.72,-4.69 0,0 0,0 0,0 0,0 0,0 0,0l0 20.17z"/>
  <path id="2" class="fil0" d="M783.59 295.71c-5.73,0 -10.61,-1.04 -14.69,-3.08 -4.08,-2.07 -7.19,-5.03 -9.33,-8.93 -2.16,-3.9 -3.23,-8.59 -3.23,-14.08l0 -43.91c0,-5.42 1.07,-10.06 3.23,-13.87 2.13,-3.84 5.24,-6.77 9.33,-8.78 4.08,-1.98 8.96,-2.99 14.69,-2.99 5.7,0 10.6,1.01 14.69,2.99 4.05,2.01 7.16,4.94 9.26,8.78 2.13,3.81 3.17,8.44 3.17,13.87l0 44.19c0,5.42 -1.04,10.05 -3.17,13.93 -2.1,3.87 -5.21,6.82 -9.26,8.84 -4.08,2.04 -8.99,3.05 -14.69,3.05zm-0.09 -18.22c2.5,0 4.42,-0.76 5.76,-2.32 1.34,-1.55 2.01,-3.75 2.01,-6.61l0 -41.69c0,-2.74 -0.67,-4.88 -2.01,-6.37 -1.34,-1.52 -3.26,-2.29 -5.76,-2.29 -2.38,0 -4.27,0.76 -5.67,2.32 -1.4,1.55 -2.1,3.66 -2.1,6.34l0 41.69c0,2.86 0.67,5.06 2.04,6.61 1.37,1.55 3.29,2.32 5.73,2.32z"/>
  <path id="3" class="fil0" d="M903.75 229.46c0,-3.81 -0.79,-6.67 -2.38,-8.62 -1.59,-1.92 -3.9,-2.9 -7.01,-2.9 -3.05,0 -5.3,0.98 -6.83,2.96 -1.52,1.95 -2.28,4.91 -2.28,8.84l-1.95 -12.31c1.95,-5.73 4.75,-10.02 8.44,-12.95 3.66,-2.93 7.8,-4.39 12.43,-4.39 4.05,0 7.53,0.94 10.42,2.83 2.86,1.86 5.09,4.6 6.58,8.26 1.52,3.63 2.28,7.98 2.28,13.1l0 70.09 -19.72 0 0 -64.91zm-76.25 -27.76l19.63 0 0 92.67 -19.63 0 0 -92.67zm38.12 27.76c0,-3.81 -0.76,-6.67 -2.28,-8.62 -1.52,-1.92 -3.81,-2.9 -6.83,-2.9 -3.11,0 -5.42,0.98 -7.01,2.96 -1.59,1.95 -2.38,4.91 -2.38,8.84l-1.86 -12.4c2.01,-5.67 4.85,-9.93 8.5,-12.86 3.69,-2.93 7.83,-4.39 12.47,-4.39 4.05,0 7.5,0.91 10.36,2.68 2.87,1.8 5,4.42 6.46,7.86 1.46,3.44 2.19,7.68 2.19,12.68l0 71.06 -19.63 0 0 -64.91z"/>
  <path id="4" class="fil0" d="M967.5 295.71c-5.73,0 -10.61,-1.04 -14.69,-3.08 -4.08,-2.07 -7.19,-5.03 -9.33,-8.93 -2.16,-3.9 -3.23,-8.59 -3.23,-14.08l0 -43.91c0,-5.42 1.07,-10.06 3.23,-13.87 2.13,-3.84 5.24,-6.77 9.33,-8.78 4.08,-1.98 8.96,-2.99 14.69,-2.99 5.7,0 10.6,1.01 14.69,2.99 4.05,2.01 7.16,4.94 9.26,8.78 2.13,3.81 3.17,8.44 3.17,13.87l0 44.19c0,5.42 -1.04,10.05 -3.17,13.93 -2.1,3.87 -5.21,6.82 -9.26,8.84 -4.08,2.04 -8.99,3.05 -14.69,3.05zm-0.09 -18.22c2.5,0 4.42,-0.76 5.76,-2.32 1.34,-1.55 2.01,-3.75 2.01,-6.61l0 -41.69c0,-2.74 -0.67,-4.88 -2.01,-6.37 -1.34,-1.52 -3.26,-2.29 -5.76,-2.29 -2.38,0 -4.27,0.76 -5.67,2.32 -1.4,1.55 -2.1,3.66 -2.1,6.34l0 41.69c0,2.86 0.67,5.06 2.04,6.61 1.37,1.55 3.29,2.32 5.73,2.32z"/>
  <path id="5" class="fil0" d="M1038.11 295.71c-6.1,0 -11.24,-1.04 -15.51,-3.14 -4.23,-2.07 -7.5,-5.12 -9.72,-9.08 -2.23,-3.99 -3.35,-8.81 -3.35,-14.38l0 -41.17c0,-5.88 1.13,-10.91 3.35,-15.08 2.22,-4.18 5.49,-7.34 9.78,-9.51 4.27,-2.16 9.42,-3.26 15.45,-3.26 6,0 11.15,1.1 15.48,3.26 4.3,2.16 7.59,5.36 9.87,9.6 2.25,4.23 3.38,9.29 3.38,15.18l0 5.55 -19.29 0 0 -4.57c0,-3.57 -0.79,-6.34 -2.41,-8.29 -1.62,-1.98 -3.87,-2.96 -6.79,-2.96 -2.9,0 -5.18,0.97 -6.83,2.89 -1.62,1.95 -2.44,4.63 -2.44,8.11l0 39.37c0,3.08 0.82,5.46 2.44,7.13 1.65,1.68 3.93,2.5 6.83,2.5 2.92,0 5.18,-0.88 6.79,-2.62 1.62,-1.77 2.41,-4.27 2.41,-7.47l0 -4.3 19.47 0.18 0 5.09c0,5.67 -1.16,10.48 -3.44,14.5 -2.29,4.02 -5.61,7.1 -9.91,9.23 -4.33,2.16 -9.51,3.23 -15.57,3.23z"/>
  <path id="6" class="fil0" d="M1079.34 165.1l19.56 0 0 19.44 -19.56 0 0 -19.44zm0 36.6l19.56 0 0 92.67 -19.56 0 0 -92.67z"/>
  <path id="7" class="fil0" d="M1141.93 295.71c-5.73,0 -10.61,-1.04 -14.69,-3.08 -4.08,-2.07 -7.19,-5.03 -9.33,-8.93 -2.16,-3.9 -3.23,-8.59 -3.23,-14.08l0 -43.91c0,-5.42 1.07,-10.06 3.23,-13.87 2.13,-3.84 5.24,-6.77 9.33,-8.78 4.08,-1.98 8.96,-2.99 14.69,-2.99 5.7,0 10.6,1.01 14.69,2.99 4.05,2.01 7.16,4.94 9.26,8.78 2.13,3.81 3.17,8.44 3.17,13.87l0 44.19c0,5.42 -1.04,10.05 -3.17,13.93 -2.1,3.87 -5.21,6.82 -9.26,8.84 -4.08,2.04 -8.99,3.05 -14.69,3.05zm-0.09 -18.22c2.5,0 4.42,-0.76 5.76,-2.32 1.34,-1.55 2.01,-3.75 2.01,-6.61l0 -41.69c0,-2.74 -0.67,-4.88 -2.01,-6.37 -1.34,-1.52 -3.26,-2.29 -5.76,-2.29 -2.38,0 -4.27,0.76 -5.67,2.32 -1.4,1.55 -2.1,3.66 -2.1,6.34l0 41.69c0,2.86 0.67,5.06 2.04,6.61 1.37,1.55 3.29,2.32 5.73,2.32zm-11.09 -100.17l21.97 -31.69 14.48 11.24 -23.68 30.02 -12.77 -9.57z"/>
  <path id="8" class="fil0" d="M1185.84 201.7l19.63 0 0 92.67 -19.63 0 0 -92.67zm38.03 27.76c0,-3.81 -0.79,-6.67 -2.35,-8.62 -1.52,-1.92 -3.84,-2.9 -6.95,-2.9 -3.05,0 -5.3,0.98 -6.83,2.96 -1.52,1.95 -2.28,4.91 -2.28,8.84l-1.86 -12.16c1.95,-5.76 4.72,-10.12 8.35,-13.07 3.6,-2.93 7.68,-4.42 12.25,-4.42 6.16,0 10.88,2.1 14.2,6.31 3.35,4.17 5,10.15 5,17.89l0 70.09 -19.53 0 0 -64.91z"/>
  <path id="9" class="fil0" d="M1334.22 164.55l19.53 0 0 129.82 -19.53 0 0 -129.82zm-17.95 131.35c-4.05,0 -7.53,-1.04 -10.39,-3.08 -2.9,-2.07 -5.09,-5.06 -6.61,-9.02 -1.52,-3.96 -2.29,-8.74 -2.29,-14.32l0 -42.51c0,-5.64 0.76,-10.48 2.29,-14.51 1.52,-4.02 3.72,-7.07 6.61,-9.2 2.86,-2.1 6.34,-3.17 10.39,-3.17 4.17,0 7.98,1.46 11.43,4.39 3.44,2.93 6.25,6.98 8.38,12.22l-1.86 12.4c0,-2.32 -0.36,-4.3 -1.07,-5.97 -0.73,-1.68 -1.74,-2.93 -3.05,-3.78 -1.31,-0.88 -2.92,-1.31 -4.81,-1.31 -2.87,0 -5.09,0.97 -6.64,2.95 -1.58,1.95 -2.38,4.69 -2.38,8.2l0 38.31c0,3.35 0.79,5.91 2.38,7.74 1.55,1.8 3.78,2.71 6.64,2.71 1.89,0 3.5,-0.43 4.81,-1.25 1.31,-0.82 2.32,-2.07 3.05,-3.72 0.7,-1.62 1.07,-3.57 1.07,-5.85l1.25 12.68c-1.62,5.06 -4.08,9.02 -7.41,11.85 -3.35,2.8 -7.28,4.24 -11.79,4.24z"/>
  <path id="10" class="fil0" d="M1399.28 295.71c-6.06,0 -11.24,-1.16 -15.51,-3.47 -4.3,-2.32 -7.56,-5.7 -9.84,-10.15 -2.26,-4.42 -3.38,-9.78 -3.38,-16.03l0 -34.62c0,-6.61 1.1,-12.28 3.29,-16.97 2.22,-4.69 5.42,-8.29 9.6,-10.73 4.21,-2.44 9.26,-3.66 15.15,-3.66 5.94,0 11.06,1.16 15.3,3.5 4.27,2.32 7.53,5.7 9.75,10.12 2.22,4.45 3.35,9.81 3.35,16.12l0 25.35 -41.63 0 0 -15.08 22.76 0 0 -10.54c0,-3.81 -0.82,-6.77 -2.5,-8.84 -1.65,-2.07 -3.99,-3.14 -7.04,-3.14 -2.93,0 -5.18,1.13 -6.8,3.35 -1.59,2.25 -2.41,5.39 -2.41,9.42l0 36.36c0,3.5 0.88,6.25 2.59,8.2 1.74,1.98 4.18,2.96 7.31,2.96 2.93,0 5.18,-0.76 6.77,-2.29 1.55,-1.52 2.35,-3.63 2.35,-6.37l0 -1.98 18.83 0.09 0 1.62c0,8.5 -2.44,15.11 -7.31,19.78 -4.87,4.66 -11.76,7.01 -20.63,7.01z"/>
  <path id="11" class="fil0" d="M1500.36 268.04c0,2.32 0.55,4.11 1.65,5.42 1.13,1.31 2.68,1.98 4.69,1.98l3.93 0 0 18.92 -7.68 0c-7.01,0 -12.47,-2.13 -16.33,-6.43 -3.87,-4.3 -5.79,-10.33 -5.79,-18.13l0 -105.26 19.53 0 0 103.49z"/>
  <path id="12" class="fil0" d="M1559.27 227.24c0,-3.11 -0.82,-5.49 -2.5,-7.19 -1.65,-1.71 -3.99,-2.53 -6.95,-2.53 -2.62,0 -4.66,0.82 -6.12,2.53 -1.46,1.71 -2.19,4.08 -2.19,7.19l-18.83 0c0,-8.62 2.41,-15.33 7.19,-20.05 4.79,-4.72 11.55,-7.1 20.33,-7.1 5.82,0 10.82,1.07 14.99,3.17 4.14,2.13 7.34,5.21 9.54,9.29 2.19,4.08 3.32,8.96 3.32,14.69l0 67.13 -18.77 0 0 -67.13zm-16.43 68.48c-7.25,0 -12.74,-2.22 -16.46,-6.64 -3.72,-4.45 -5.58,-10.97 -5.58,-19.6 0,-10.18 2.5,-17.86 7.5,-23.04 5,-5.18 12.37,-7.77 22.12,-7.77l9.39 0 1.25 16.33 -9.99 0c-3.87,0 -6.8,1.22 -8.75,3.66 -1.98,2.44 -2.96,6.03 -2.96,10.82 0,3.14 0.73,5.52 2.19,7.1 1.46,1.55 3.63,2.35 6.55,2.35 3.63,0 6.4,-1.01 8.32,-3.02 1.89,-2.04 2.84,-5.03 2.84,-9.02l1.71 8.2c-0.06,4.48 -0.79,8.26 -2.19,11.34 -1.4,3.11 -3.44,5.42 -6.09,6.98 -2.68,1.55 -5.97,2.32 -9.84,2.32z"/>
  <path id="13" class="fil0" d="M1663.28 295.71c-6.8,0 -12.56,-1.22 -17.37,-3.66 -4.79,-2.44 -8.44,-6 -10.94,-10.67 -2.5,-4.69 -3.75,-10.36 -3.75,-17l0 -6.71 19.47 -0.09 0 6.43c0,3.99 1.1,7.07 3.29,9.29 2.22,2.19 5.3,3.29 9.29,3.29 3.87,0 6.86,-1.1 8.99,-3.26 2.1,-2.16 3.17,-5.24 3.17,-9.23l0 -11.34c0,-2.8 -0.73,-5.18 -2.19,-7.16 -1.46,-1.95 -3.29,-3.6 -5.49,-4.94 -2.22,-1.34 -5.24,-2.93 -9.11,-4.78 -0.18,-0.06 -0.36,-0.12 -0.55,-0.21 -0.18,-0.09 -0.36,-0.18 -0.52,-0.24l-1.16 -0.52c-5.18,-2.5 -9.48,-5 -12.92,-7.5 -3.41,-2.5 -6.31,-5.91 -8.66,-10.18 -2.35,-4.3 -3.54,-9.66 -3.54,-16.09l0 -7.13c0,-6.49 1.25,-12.04 3.72,-16.64 2.47,-4.63 6.09,-8.14 10.85,-10.54 4.76,-2.41 10.51,-3.63 17.22,-3.63 6.61,0 12.25,1.22 16.88,3.63 4.63,2.41 8.2,5.94 10.64,10.64 2.44,4.66 3.66,10.3 3.66,16.91l0 7.04 -19.56 0.18 0 -6.8c0,-4.02 -1.01,-7.13 -2.99,-9.33 -1.98,-2.16 -4.88,-3.26 -8.63,-3.26 -3.93,0 -6.95,1.04 -9.05,3.05 -2.1,2.01 -3.17,4.88 -3.17,8.56l0 8.41c0,2.83 0.7,5.27 2.1,7.31 1.4,2.01 3.17,3.66 5.3,4.94 2.13,1.28 5.09,2.83 8.84,4.6 0.55,0.24 1.07,0.49 1.55,0.76 0.52,0.27 1.07,0.52 1.68,0.76 0.15,0.12 0.36,0.21 0.58,0.3 0.18,0.09 0.43,0.21 0.67,0.33 5.06,2.44 9.11,4.73 12.22,6.92 3.11,2.16 5.73,5.24 7.89,9.26 2.19,4.02 3.26,9.23 3.26,15.6l0 11.34c0,6.64 -1.22,12.31 -3.69,17 -2.47,4.66 -6.09,8.23 -10.82,10.67 -4.73,2.44 -10.45,3.66 -17.19,3.66z"/>
  <path id="14" class="fil0" d="M1749.43 227.24c0,-3.11 -0.82,-5.49 -2.5,-7.19 -1.65,-1.71 -3.99,-2.53 -6.95,-2.53 -2.62,0 -4.66,0.82 -6.12,2.53 -1.46,1.71 -2.19,4.08 -2.19,7.19l-18.83 0c0,-8.62 2.41,-15.33 7.19,-20.05 4.79,-4.72 11.55,-7.1 20.33,-7.1 5.82,0 10.82,1.07 14.99,3.17 4.14,2.13 7.34,5.21 9.54,9.29 2.19,4.08 3.32,8.96 3.32,14.69l0 67.13 -18.77 0 0 -67.13zm-16.43 68.48c-7.25,0 -12.74,-2.22 -16.46,-6.64 -3.72,-4.45 -5.58,-10.97 -5.58,-19.6 0,-10.18 2.5,-17.86 7.5,-23.04 5,-5.18 12.37,-7.77 22.12,-7.77l9.39 0 1.25 16.33 -9.99 0c-3.87,0 -6.8,1.22 -8.75,3.66 -1.98,2.44 -2.96,6.03 -2.96,10.82 0,3.14 0.73,5.52 2.19,7.1 1.46,1.55 3.63,2.35 6.55,2.35 3.63,0 6.4,-1.01 8.32,-3.02 1.89,-2.04 2.84,-5.03 2.84,-9.02l1.71 8.2c-0.06,4.48 -0.79,8.26 -2.19,11.34 -1.4,3.11 -3.44,5.42 -6.09,6.98 -2.68,1.55 -5.97,2.32 -9.84,2.32z"/>
  <path id="15" class="fil0" d="M1806.39 268.04c0,2.32 0.55,4.11 1.65,5.42 1.13,1.31 2.68,1.98 4.69,1.98l3.93 0 0 18.92 -7.68 0c-7.01,0 -12.47,-2.13 -16.33,-6.43 -3.87,-4.3 -5.79,-10.33 -5.79,-18.13l0 -105.26 19.53 0 0 103.49z"/>
  <path id="16" class="fil0" d="M1864.5 201.7l19.47 0 0 92.67 -19.47 0 0 -92.67zm-16.97 68.11c0,2.87 0.73,5 2.16,6.43 1.43,1.43 3.57,2.16 6.43,2.16 2.77,0 4.88,-0.76 6.28,-2.25 1.4,-1.46 2.1,-3.72 2.1,-6.68l1.25 10.27c-1.55,5.33 -3.78,9.36 -6.64,12.01 -2.89,2.62 -6.49,3.96 -10.76,3.96 -6.74,0 -11.79,-2.13 -15.15,-6.43 -3.35,-4.3 -5.03,-10.66 -5.03,-19.11l0 -68.48 19.35 0 0 68.11z"/>
  <path id="17" class="fil0" d="M1937.97 164.55l19.53 0 0 129.82 -19.53 0 0 -129.82zm-17.95 131.35c-4.05,0 -7.53,-1.04 -10.39,-3.08 -2.9,-2.07 -5.09,-5.06 -6.61,-9.02 -1.52,-3.96 -2.29,-8.74 -2.29,-14.32l0 -42.51c0,-5.64 0.76,-10.48 2.29,-14.51 1.52,-4.02 3.72,-7.07 6.61,-9.2 2.86,-2.1 6.34,-3.17 10.39,-3.17 4.17,0 7.98,1.46 11.43,4.39 3.44,2.93 6.25,6.98 8.38,12.22l-1.86 12.4c0,-2.32 -0.36,-4.3 -1.07,-5.97 -0.73,-1.68 -1.74,-2.93 -3.05,-3.78 -1.31,-0.88 -2.92,-1.31 -4.81,-1.31 -2.87,0 -5.09,0.97 -6.64,2.95 -1.58,1.95 -2.38,4.69 -2.38,8.2l0 38.31c0,3.35 0.79,5.91 2.38,7.74 1.55,1.8 3.78,2.71 6.64,2.71 1.89,0 3.5,-0.43 4.81,-1.25 1.31,-0.82 2.32,-2.07 3.05,-3.72 0.7,-1.62 1.07,-3.57 1.07,-5.85l1.25 12.68c-1.62,5.06 -4.08,9.02 -7.41,11.85 -3.35,2.8 -7.28,4.24 -11.79,4.24z"/>
 </g>
</svg>
